<svg width="87" height="88" viewBox="0 0 87 88" fill="none" xmlns="http://www.w3.org/2000/svg">
<rect width="81" height="81" rx="12" fill="url(#paint0_linear_260_128)"/>
<circle cx="70.5" cy="71.5" r="16.5" fill="white"/>
<path fill-rule="evenodd" clip-rule="evenodd" d="M20.2857 27.6786C18.4711 27.6786 17 29.1496 17 30.9643V42.4643C17 44.2789 18.4711 45.75 20.2857 45.75H21.9286V31.7857H55.6071V30.9643C55.6071 29.1496 54.1361 27.6786 52.3214 27.6786H20.2857Z" fill="white"/>
<path fill-rule="evenodd" clip-rule="evenodd" d="M27.6786 34.25C25.8639 34.25 24.3929 35.7211 24.3929 37.5357V49.0357C24.3929 50.8504 25.8639 52.3214 27.6786 52.3214H59.7143C61.5289 52.3214 63 50.8504 63 49.0357V37.5357C63 35.7211 61.5289 34.25 59.7143 34.25H27.6786ZM43.1202 48.7047C46.2044 48.7047 48.7047 46.2044 48.7047 43.1202C48.7047 40.036 46.2044 37.5357 43.1202 37.5357C40.036 37.5357 37.5357 40.036 37.5357 43.1202C37.5357 46.2044 40.036 48.7047 43.1202 48.7047Z" fill="white"/>
<path d="M80.3815 65.752C79.1087 65.2073 77.835 65 76.5619 65C72.5204 64.9997 68.4793 67.0873 64.4378 67.0873C63.4243 67.0873 62.4114 66.956 61.3978 66.6279C61.2839 66.5911 61.1697 66.5737 61.0582 66.5737C60.4935 66.5737 60 67.0196 60 67.6387V78.2613C60 78.6842 60.2372 79.0849 60.6182 79.2477C61.891 79.7927 63.1647 80 64.4378 80C68.4793 80 72.5207 77.9124 76.5622 77.9124C77.5757 77.9124 78.5886 78.0436 79.6022 78.3718C79.7161 78.4086 79.8303 78.426 79.9418 78.426C80.5065 78.426 81 77.98 81 77.3609V66.7387C80.9997 66.3155 80.7624 65.9151 80.3815 65.752V65.752ZM61.575 68.3556C62.2352 68.5243 62.9242 68.609 63.6329 68.6546C63.44 69.6386 62.5921 70.3802 61.575 70.3802V68.3556ZM61.575 77.898V76.2982C62.7027 76.2982 63.6152 77.2113 63.6654 78.354C62.9262 78.2934 62.2352 78.1427 61.575 77.898V77.898ZM70.4998 75.7143C69.0499 75.7143 67.8749 74.2749 67.8749 72.5C67.8749 70.7248 69.0502 69.2857 70.4998 69.2857C71.9495 69.2857 73.1248 70.7248 73.1248 72.5C73.1248 74.2756 71.9491 75.7143 70.4998 75.7143ZM79.4247 76.6444C78.8498 76.4974 78.253 76.4151 77.6423 76.3618C77.835 75.4886 78.5447 74.8257 79.4247 74.7118V76.6444ZM79.4247 68.739C78.4111 68.608 77.6246 67.7445 77.5935 66.6781C78.2346 66.7508 78.8433 66.8867 79.4247 67.102V68.739Z" fill="#2CCC67"/>
<defs>
<linearGradient id="paint0_linear_260_128" x1="40.5" y1="0" x2="40.5" y2="81" gradientUnits="userSpaceOnUse">
<stop stop-color="#45DB7C"/>
<stop offset="1" stop-color="#26C862"/>
</linearGradient>
</defs>
</svg>
