<svg width="87" height="88" viewBox="0 0 87 88" fill="none" xmlns="http://www.w3.org/2000/svg">
<rect width="81" height="81" rx="12" fill="url(#paint0_linear_260_126)"/>
<path fill-rule="evenodd" clip-rule="evenodd" d="M20.2857 27.6786C18.4711 27.6786 17 29.1496 17 30.9643V42.4643C17 44.2789 18.4711 45.75 20.2857 45.75H21.9286V31.7857H55.6071V30.9643C55.6071 29.1496 54.1361 27.6786 52.3214 27.6786H20.2857Z" fill="white"/>
<path fill-rule="evenodd" clip-rule="evenodd" d="M27.6786 34.25C25.8639 34.25 24.3929 35.7211 24.3929 37.5357V49.0357C24.3929 50.8504 25.8639 52.3214 27.6786 52.3214H59.7143C61.5289 52.3214 63 50.8504 63 49.0357V37.5357C63 35.7211 61.5289 34.25 59.7143 34.25H27.6786ZM43.1202 48.7047C46.2044 48.7047 48.7047 46.2044 48.7047 43.1202C48.7047 40.036 46.2044 37.5357 43.1202 37.5357C40.036 37.5357 37.5357 40.036 37.5357 43.1202C37.5357 46.2044 40.036 48.7047 43.1202 48.7047Z" fill="white"/>
<circle cx="70.5" cy="71.5" r="16.5" fill="white"/>
<path d="M75.458 66C73.2891 66 71.5927 67.2906 70.5 68.4563C69.4073 67.2906 67.7109 66 65.542 66C62.4872 66 60 68.2438 60 71C60 73.7562 62.4872 76 65.542 76C67.7109 76 69.4073 74.7094 70.5 73.5437C71.5927 74.7094 73.2891 76 75.458 76C78.5128 76 81 73.7562 81 71C81 68.2438 78.5128 66 75.458 66ZM65.542 73C64.223 73 63.15 72.1031 63.15 71C63.15 69.8969 64.223 69 65.542 69C66.7955 69 67.9505 70.1281 68.6264 71C67.957 71.8625 66.7922 73 65.542 73V73ZM75.458 73C74.2045 73 73.0495 71.8719 72.3736 71C73.043 70.1375 74.2078 69 75.458 69C76.777 69 77.85 69.8969 77.85 71C77.85 72.1031 76.777 73 75.458 73Z" fill="#28C964"/>
<defs>
<linearGradient id="paint0_linear_260_126" x1="40.5" y1="0" x2="40.5" y2="81" gradientUnits="userSpaceOnUse">
<stop stop-color="#45DB7C"/>
<stop offset="1" stop-color="#26C862"/>
</linearGradient>
</defs>
</svg>
