<svg width="87" height="88" viewBox="0 0 87 88" fill="none" xmlns="http://www.w3.org/2000/svg">
<rect width="81" height="81" rx="12" fill="url(#paint0_linear_260_127)"/>
<path fill-rule="evenodd" clip-rule="evenodd" d="M20.2857 27.6786C18.4711 27.6786 17 29.1496 17 30.9643V42.4643C17 44.2789 18.4711 45.75 20.2857 45.75H21.9286V31.7857H55.6071V30.9643C55.6071 29.1496 54.1361 27.6786 52.3214 27.6786H20.2857Z" fill="white"/>
<path fill-rule="evenodd" clip-rule="evenodd" d="M27.6786 34.25C25.8639 34.25 24.3929 35.7211 24.3929 37.5357V49.0357C24.3929 50.8504 25.8639 52.3214 27.6786 52.3214H59.7143C61.5289 52.3214 63 50.8504 63 49.0357V37.5357C63 35.7211 61.5289 34.25 59.7143 34.25H27.6786ZM43.1202 48.7047C46.2044 48.7047 48.7047 46.2044 48.7047 43.1202C48.7047 40.036 46.2044 37.5357 43.1202 37.5357C40.036 37.5357 37.5357 40.036 37.5357 43.1202C37.5357 46.2044 40.036 48.7047 43.1202 48.7047Z" fill="white"/>
<path d="M70.5 55C61.3851 55 54 62.3851 54 71.5C54 80.6149 61.3851 88 70.5 88C79.6149 88 87 80.6149 87 71.5C87 62.3851 79.6149 55 70.5 55ZM74.299 78.2929L68.4308 74.0282C68.2246 73.8752 68.1048 73.6357 68.1048 73.3829V62.1855C68.1048 61.7464 68.4641 61.3871 68.9032 61.3871H72.0968C72.5359 61.3871 72.8952 61.7464 72.8952 62.1855V71.347L77.12 74.4208C77.4792 74.6802 77.5524 75.1792 77.2929 75.5385L75.4167 78.12C75.1573 78.4726 74.6583 78.5524 74.299 78.2929Z" fill="white"/>
<defs>
<linearGradient id="paint0_linear_260_127" x1="40.5" y1="0" x2="40.5" y2="81" gradientUnits="userSpaceOnUse">
<stop stop-color="#45DB7C"/>
<stop offset="1" stop-color="#26C862"/>
</linearGradient>
</defs>
</svg>
